<?xml version="1.0" encoding="UTF-8"?><svg id="Layer_7" xmlns="http://www.w3.org/2000/svg" viewBox="0 0 441.17 378.52"><defs><style>.cls-1{fill:#ffabab;}.cls-2{fill:#fd3636;}</style></defs><path class="cls-2" d="M338.52,302.19c11.94,0,21.58-9.65,21.58-21.58v-107.92c11.94,0,21.58-9.65,21.58-21.58v-43.17c0-11.94-9.65-21.58-21.58-21.58V53.96C360.11,23.74,299.67,0,209.01,0S57.92,23.74,57.92,53.96v32.38c-11.92,0-21.58,9.65-21.58,21.58v43.17c0,11.94,9.67,21.58,21.58,21.58v107.92c0,11.94,9.67,21.58,21.58,21.58m64.75,0h129.51m-161.89-32.38c-11.94,0-21.58-9.65-21.58-21.59s9.65-21.58,21.58-21.58,21.58,9.65,21.58,21.58-9.65,21.59-21.58,21.59ZM262.98,64.75h-107.92c-5.94,0-10.79-4.83-10.79-10.79s4.86-10.79,10.79-10.79h107.92c5.94,0,10.79,4.83,10.79,10.79s-4.86,10.79-10.79,10.79Zm43.17,205.06c-11.94,0-21.58-9.65-21.58-21.59s9.65-21.58,21.58-21.58,21.59,9.65,21.59,21.58-9.65,21.59-21.59,21.59Z"/><path class="cls-1" d="M101.09,172.68c0,11.94,9.65,21.58,21.58,21.58h75.55V86.34H122.67c-11.94,0-21.58,9.65-21.58,21.58v64.75Z"/><path class="cls-1" d="M219.81,194.26h75.55c11.94,0,21.58-9.65,21.58-21.58V107.92c0-11.94-9.65-21.58-21.58-21.58h-75.55v107.92Z"/><path class="cls-1" d="M273.77,302.19v21.58c0,11.94,9.65,21.58,21.58,21.58h21.58c11.94,0,21.58-9.65,21.58-21.58v-21.58"/><path class="cls-1" d="M79.5,302.19v21.58c0,11.94,9.65,21.58,21.58,21.58h21.58c11.94,0,21.58-9.65,21.58-21.58v-21.58"/></svg>