<?xml version="1.0" encoding="UTF-8"?><svg id="Layer_5" xmlns="http://www.w3.org/2000/svg" viewBox="0 0 441.17 378.52"><defs><style>.cls-1{fill:#ffabab;}.cls-2{fill:#fd3636;}</style></defs><path class="cls-2" d="M135.71,203.15l6.05,31.58h202.69c8.75,0,15.79,7.04,15.79,15.79s-7.04,15.79-15.79,15.79H128.08c-6.97,0-13.49-5.39-14.93-12.83L73.5,45.27H39.2c-8.72,0-15.79-7.07-15.79-15.79s7.07-15.79,15.79-15.79h47.37c7.57,0,14.08,5.39,15.53,12.83l.99,8.22"/><path class="cls-1" d="M103.08,34.74H379.85c13.35,0,24.01,13.32,20.26,26.75l-35.53,126.34c-2.57,9.08-10.85,15.33-20.26,15.33H135.71"/><path class="cls-2" d="M107.62,318.94c0-17.43,14.14-31.58,31.58-31.58s31.58,14.14,31.58,31.58-14.14,31.58-31.58,31.58-31.58-14.14-31.58-31.58Z"/><path class="cls-2" d="M360.24,318.94c0,17.43-14.14,31.58-31.58,31.58s-31.58-14.14-31.58-31.58,14.14-31.58,31.58-31.58,31.58,14.14,31.58,31.58Z"/></svg>