<?xml version="1.0" encoding="UTF-8"?><svg id="Layer_8" xmlns="http://www.w3.org/2000/svg" viewBox="0 0 441.17 378.52"><defs><style>.cls-1{fill:#ffabab;}.cls-2{fill:#fd3636;}</style></defs><path class="cls-2" d="M156.04,206.42v145.4c0,7.07-2.2,13.88-7.21,18.88-5,5-11.81,7.81-19.48,7.81-6.47,0-13.27-2.8-18.28-7.81-5-5-8.41-11.81-8.41-18.88V206.42"/><path class="cls-1" d="M102.65,206.42c-13.44-2.67-26.12-10.14-35.23-21.15-5.41-6.81-9.19-14.75-11.04-23.29s-1.73-17.35,.37-25.82l20.16-90.99c.57-2.57,2.07-4.84,4.21-6.37,2.14-1.53,4.77-2.22,7.39-1.93,2.62,.29,5.05,1.53,6.81,3.51,1.76,1.97,2.72,4.52,2.71,7.17v96.09h11.59l11.4-98.82c.27-2.19,1.32-4.2,2.99-5.66,1.6-1.46,3.74-2.26,5.34-2.26,2.8,0,4.94,.81,6.54,2.26,1.67,1.46,2.14,3.47,3,5.66l11.41,98.82h11.08V47.54c0-2.62,1.53-5.16,2.67-7.13,2.34-1.97,4.74-3.23,7.34-3.55,2.6-.29,4.67,.41,7.41,1.96,2.14,1.55,3.6,3.83,4.2,6.42l20.09,90.85c2.07,8.41,2.14,17.22,.33,25.69-1.87,7.94-5.67,16.48-11.01,23.29-9.68,11.01-21.75,18.02-36.37,21.35"/><path class="cls-2" d="M354.16,271.22v80.61c0,7.07-2.8,13.88-7.81,18.88s-11.81,7.81-18.88,7.81-13.88-2.8-18.88-7.81-7.81-11.81-7.81-18.88v-80.08"/><path class="cls-1" d="M300.77,271.75h-11.21c-5.61,0-11.21-1.13-16.42-3.27-5.14-2.2-9.88-5.34-13.88-9.34-3.94-4-7.07-8.74-9.81-13.95-1.54-5.21-2.6-10.81-2.6-16.42l-.07-75.94c.6-24.62,8.01-48.71,21.82-69.08,13.81-20.4,33.36-36.19,56.25-45.34,2.67-1.29,6.74-1.77,10.21-1.4,3.47,.37,6.81,1.59,9.68,3.54,2.87,1.95,5.27,4.58,6.87,7.66,1.67,3.08,1.94,6.51,2.54,9.99v213"/></svg>