<?xml version="1.0" encoding="UTF-8"?><svg id="Layer_2" xmlns="http://www.w3.org/2000/svg" viewBox="0 0 441.17 378.52"><defs><style>.cls-1{fill:#ffabab;}.cls-2{fill:#fd3636;}</style></defs><path class="cls-1" d="M363.12,34.34c10.93,0,19.76,8.85,19.76,19.76s-8.83,19.76-19.76,19.76v237.13c10.93,0,19.76,8.83,19.76,19.76s-8.83,19.76-19.76,19.76h-108.69v-39.52h-59.28v39.52H86.46c-10.91,0-19.76-8.83-19.76-19.76s8.85-19.76,19.76-19.76V73.86c-10.91,0-19.76-8.85-19.76-19.76s8.85-19.76,19.76-19.76H363.12Z"/><g><rect class="cls-2" x="125.99" y="93.62" width="39.52" height="39.52" rx="9.88" ry="9.88"/><path class="cls-2" d="M135.87,152.91h19.76c5.45,0,9.88,4.43,9.88,9.88v19.76c0,5.45-4.43,9.88-9.88,9.88h-19.76c-5.45,0-9.88-4.43-9.88-9.88v-19.76c0-5.45,4.43-9.88,9.88-9.88Z"/><path class="cls-2" d="M224.79,212.19c-27.67,0-50.95,18.96-57.99,44.59-1.48,7.97,5.31,14.7,13.52,14.7h88.93c8.21,0,15.01-6.73,12.97-14.7-6.48-25.63-29.76-44.59-57.43-44.59Z"/><path class="cls-2" d="M214.91,93.62h19.76c5.45,0,9.88,4.43,9.88,9.88v19.76c0,5.45-4.43,9.88-9.88,9.88h-19.76c-5.45,0-9.88-4.43-9.88-9.88v-19.76c0-5.45,4.43-9.88,9.88-9.88Z"/><path class="cls-2" d="M214.91,152.91h19.76c5.45,0,9.88,4.43,9.88,9.88v19.76c0,5.45-4.43,9.88-9.88,9.88h-19.76c-5.45,0-9.88-4.43-9.88-9.88v-19.76c0-5.45,4.43-9.88,9.88-9.88Z"/><path class="cls-2" d="M293.96,93.62h19.76c5.45,0,9.88,4.43,9.88,9.88v19.76c0,5.45-4.43,9.88-9.88,9.88h-19.76c-5.45,0-9.88-4.43-9.88-9.88v-19.76c0-5.45,4.43-9.88,9.88-9.88Z"/><rect class="cls-2" x="284.08" y="152.91" width="39.52" height="39.52" rx="9.88" ry="9.88"/><rect class="cls-2" x="66.28" y="34.52" width="317" height="39" rx="19.5" ry="19.5"/></g></svg>