<?xml version="1.0" encoding="UTF-8"?><svg id="Layer_6" xmlns="http://www.w3.org/2000/svg" viewBox="0 0 441.17 378.52"><defs><style>.cls-1{fill:#ffabab;}.cls-2{fill:#fd3636;}</style></defs><path class="cls-1" d="M109.06,6.4c11.9,0,21.51,9.63,21.51,21.51v21.51h236.58c11.9,0,21.51,9.63,21.51,21.51s-9.61,21.51-21.51,21.51H130.57v236.58c0,11.9-9.61,21.51-21.51,21.51s-21.51-9.61-21.51-21.51V92.43h-21.51c-11.88,0-21.51-9.61-21.51-21.51s9.63-21.51,21.51-21.51h21.51V27.91c0-11.88,9.63-21.51,21.51-21.51Z"/><path class="cls-2" d="M173.58,113.94h172.06c11.87,0,21.51,9.64,21.51,21.51v107.54c0,11.87-9.64,21.51-21.51,21.51H173.58c-11.87,0-21.51-9.64-21.51-21.51v-107.54c0-11.87,9.64-21.51,21.51-21.51Z"/></svg>