<?xml version="1.0" encoding="UTF-8"?><svg id="Layer_1" xmlns="http://www.w3.org/2000/svg" viewBox="0 0 441.17 378.52"><defs><style>.cls-1{fill:#ffabab;}.cls-2{fill:#fd3636;}</style></defs><path class="cls-1" d="M137.22,138.62c1.79,4.25,3.76,8.44,5.91,12.68v154.8l-78.26,31.34c-9.7,3.33-20.26-3.26-20.26-13.73V156.97c0-6.03,3.68-12.01,9.29-13.73l75.44-30.17c1.48,8.74,4.5,17.43,7.88,25.55Z"/><path class="cls-1" d="M246.45,231.78c8.56-10.16,21.98-27.59,34.61-46.86v153.51l-118.22-33.8v-119.7c12.62,19.27,26.05,36.7,34.61,46.86,12.62,16.32,36.39,16.32,49.01,0Z"/><path class="cls-2" d="M221.95,27.91c-40.82,0-73.89,33.08-73.89,73.89,0,33.62,45.01,93.53,64.78,117.67,4.74,6.47,13.49,6.47,18.23,0,19.77-24.14,64.78-84.05,64.78-117.67,0-40.81-33.07-73.89-73.89-73.89Zm0,93.59c-13.61,0-24.63-11.02-24.63-24.63s11.02-24.63,24.63-24.63,24.63,11.03,24.63,24.63-11.02,24.63-24.63,24.63Z"/><path class="cls-1" d="M306.67,138.62c.31-.74,.62-1.48,.92-2.28l71.43-28.57c9.73-3.88,20.26,3.26,20.26,13.73v166.75c0,6.03-3.69,11.45-9.3,13.73l-89.22,35.65V151.31c2.16-4.25,4.13-8.44,5.91-12.68Z"/></svg>