<?xml version="1.0" encoding="UTF-8"?><svg id="Layer_12" xmlns="http://www.w3.org/2000/svg" viewBox="0 0 441.17 378.52"><defs><style>.cls-1{fill:#ffabab;}.cls-2{fill:#fd3636;}</style></defs><path class="cls-2" d="M.42,239.95V52.97c0-6.09,4.93-11.02,11.02-11.02h22.04c6.09,0,11.02,4.93,11.02,11.02V240.29"/><path class="cls-2" d="M441.17,240.29v99.17c0,6.09-4.93,11.02-11.02,11.02h-22.04c-6.09,0-11.02-4.93-11.02-11.02v-33.06H44.5v33.06c0,6.06-4.93,11.02-11.02,11.02H11.44c-6.09,0-11.02-4.96-11.02-11.02v-99.51"/><path class="cls-1" d="M198.76,240.29V119.08c0-6.06,4.96-11.02,11.02-11.02h165.28c36.5,0,66.11,28.99,66.11,66.11v66.11"/><circle class="cls-2" cx="121.63" cy="163.16" r="55.09"/></svg>