<?xml version="1.0" encoding="UTF-8"?><svg id="Layer_10" xmlns="http://www.w3.org/2000/svg" viewBox="0 0 441.17 378.52"><defs><style>.cls-1{fill:#ffabab;}.cls-2{fill:#fd3636;}</style></defs><path class="cls-1" d="M109.72,69.2v12.65c0,26.88,10.67,52.08,29.68,71.68l54.38,54.33-54.38,54.33c-19.01,19-29.68,44.8-29.68,71.66v12.67h-5.33c-8.83,0-16,7.13-16,16s7.17,16,16,16h223.99c8.87,0,16-7.13,16-16s-7.13-16-16-16h-5.33v-12.67c0-26.87-11.27-52.66-29.67-71.66l-54.4-54.33,54.4-54.33c18.4-19.6,29.67-44.8,29.67-71.68v-12.65m-32-2.35c0,14.7,.23,43.66-13.2,55.68h-122.94c-13.63-13.02-13.19-40.98-13.19-55.68m13.19,226.33c1.55-2.93,4.55-5.73,7.15-8.33l54.33-54.4,54.33,54.4c2.6,2.6,5,5.4,7.13,8.33h-122.94Z"/><rect class="cls-2" x="88.28" y="346.52" width="256" height="32" rx="16" ry="16"/><polygon class="cls-2" points="216.38 184.33 155.28 122.52 277.85 122.53 216.38 184.33"/><path class="cls-2" d="M148.28,346.52h136.57s6.11-9.72,6.21-13.75,.22-2.65,.22-12.25c0-19-13.43-27.33-13.43-27.33h-122.94s-12.63,10.33-12.63,25.33v14c0,3.73,6,14,6,14Z"/><path class="cls-2" d="M323.05,69.2h5.33c8.87,0,16-7.17,16-16s-7.13-16-16-16H104.39c-8.83,0-16,7.17-16,16s7.17,16,16,16h5.33"/></svg>