<?xml version="1.0" encoding="UTF-8"?><svg id="Layer_3" xmlns="http://www.w3.org/2000/svg" viewBox="0 0 441.17 378.52"><defs><style>.cls-1{fill:#ffabab;}.cls-2{fill:#ff1d25;}</style></defs><path class="cls-1" d="M133.56,147.98L63.75,48.31c-4.66-6.65,.09-15.79,8.22-15.79h75.44c3.51,0,6.77,1.85,8.03,4.87l46.79,77.17c-26.34,4.08-50.05,16.06-68.66,33.42Z"/><path class="cls-2" d="M222.49,132.88c-61,0-110.4,49.4-110.4,110.4s49.43,110.39,110.4,110.39,110.39-49.4,110.39-110.39-49.36-110.4-110.39-110.4Zm58.02,98.67l-23.76,23.21,5.57,32.77c1.02,5.8-5.17,10.35-10.43,7.53l-29.41-15.44-29.41,15.41c-5.25,2.82-11.45-1.72-10.43-7.53l5.57-32.77-23.76-23.21c-4.31-4.17-1.86-11.45,4.04-12.33l32.85-4.78,14.69-29.78c1.25-2.67,3.84-4,6.43-4s5.17,1.36,6.43,4l14.74,29.79,32.85,4.78c5.97,.86,8.36,8.14,4.03,12.34Z"/><path class="cls-1" d="M381.19,47.79l-69.81,99.67c-18.58-17.41-42.34-29.41-68.68-33.48l46.27-76.59c1.81-3.02,5.08-4.87,8.61-4.87h74.89c8.66,0,13.42,9.15,8.73,15.27Z"/></svg>